<svg xmlns="http://www.w3.org/2000/svg" viewBox="0 0 1000 500" width="1000" height="500">
  <rect width="1000" height="500" fill="#eef5ff"/>
  <g fill="#d6e6fb" stroke="#aac4e8" stroke-width="2">
    <!-- North America -->
    <path d="M80 110l40-20 55 10 50-18 45 12 35 30-10 35-28 12-10 22-18 12-45 2-35-15-32-18-18-30-20-20 0-14z"/>
    <!-- Greenland -->
    <path d="M290 45l30-8 26 14-10 24-34 4-20-16z"/>
    <!-- South America -->
    <path d="M255 240l32-10 35 22 18 38-8 42-18 34-24 46-24 26-18-20-8-38 4-36 10-36 1-31z"/>
    <!-- Europe -->
    <path d="M430 110l28-10 24 5 18 18-6 19-24 8-24 0-18-18z"/>
    <!-- Africa -->
    <path d="M455 170l38-6 38 18 18 36-4 46-20 52-34 30-24-14-18-40-10-44 4-40 12-38z"/>
    <!-- Asia -->
    <path d="M500 110l46-18 70 0 58 10 60 24 56 38 26 38-10 38-26 18-34 0-26 16-38 0-32-16-34 6-26 18-24 0-12-18 12-26-8-24-22-10-20-22 0-24z"/>
    <!-- Arabian Peninsula / India detail -->
    <path d="M610 210l36 8 18 28-8 22-28 6-24-18z"/>
    <path d="M675 250l28 12 16 24-10 24-24 2-16-18 2-24z"/>
    <!-- Japan -->
    <path d="M835 175l12 10-6 18-10 10-8-12 4-16z"/>
    <!-- Australia -->
    <path d="M760 340l48-12 54 8 36 24-8 28-34 18-56 4-34-18-16-26z"/>
    <!-- Madagascar -->
    <path d="M575 330l14 8-6 28-14 14-8-18z"/>
  </g>
</svg>
